<?xml version="1.0" encoding="UTF-8"?>
<svg version="1.1" xmlns="http://www.w3.org/2000/svg" width="16" height="16">
<path d="M0 0 C1.98 0.495 1.98 0.495 4 1 C3.01 1.33 2.02 1.66 1 2 C2.15173355 4.46800047 3.04783565 6.04783565 5 8 C4.625 10.125 4.625 10.125 4 12 C2.68 11.67 1.36 11.34 0 11 C0.99 10.34 1.98 9.68 3 9 C2.319375 8.443125 1.63875 7.88625 0.9375 7.3125 C0.298125 6.549375 -0.34125 5.78625 -1 5 C-0.75 2.25 -0.75 2.25 0 0 Z " fill="#33F2D6" transform="translate(9,2)"/>
<path d="M0 0 C2.125 0.375 2.125 0.375 4 1 C2.02 1.99 2.02 1.99 0 3 C-0.33397787 5.87413125 -0.33397787 5.87413125 0 9 C1.88077873 10.91256712 1.88077873 10.91256712 4 12 C-0.875 11.125 -0.875 11.125 -2 10 C-2.27314815 4.26388889 -2.27314815 4.26388889 -2 2 C-1.34 1.34 -0.68 0.68 0 0 Z " fill="#F2C933" transform="translate(4,2)"/>
</svg>
